<svg clip-rule="evenodd" fill-rule="evenodd" stroke-linejoin="round" stroke-miterlimit="2" viewBox="0 0 560 400" xmlns="http://www.w3.org/2000/svg"><path d="m11.074 9.822.011 4.03c0 1.024.485 1.53 1.445 1.53h.42c.96 0 1.445-.506 1.445-1.53v-1.982h2.21v1.883c0 2.587-1.229 3.909-3.666 3.909h-.485c-2.437 0-3.666-1.311-3.666-3.601v-9.855c0-2.896 1.229-4.206 3.666-4.206h.485c2.437 0 3.666 1.31 3.666 3.898l-.01 5.913h-5.521zm-.011-2.346h3.256v-3.666c0-1.024-.474-1.542-1.444-1.542h-.367c-.96 0-1.445.518-1.445 1.542zm7.02-7.278h2.286v1.124c.539-.606 1.466-1.311 2.793-1.311 1.951 0 2.911 1.377 2.911 3.425v10.813c0 2.048-.96 3.424-2.911 3.424-1.327 0-2.254-.672-2.793-1.244v5.571h-2.286zm2.286 14.26c.625.572 1.348.892 2.102.892.841 0 1.327-.419 1.327-1.41v-10.24c0-.991-.486-1.409-1.327-1.409-.754 0-1.477.319-2.102.891zm7.083-3.006c0-2.147.658-3.006 2.405-3.645l3.062-1.123v-2.874c0-1.024-.485-1.564-1.445-1.564h-.367c-.959 0-1.444.54-1.444 1.564v2.444h-2.222v-2.345c0-2.587 1.23-3.898 3.666-3.898h.432c2.436 0 3.666 1.311 3.666 3.898v13.566h-2.286v-1.09c-.625.638-1.477 1.277-2.793 1.277-1.833 0-2.674-1.123-2.674-3.039zm5.467 3.105v-5.693l-2.07.837c-.841.352-1.111.804-1.111 1.795v2.62c0 .837.388 1.245 1.111 1.245.69 0 1.326-.254 2.07-.804zm11.516 2.918h-2.286v-13.918c0-.859-.388-1.245-1.078-1.245-.625 0-1.294.254-2.102.859v14.304h-2.286v-17.277h2.286v1.123c.668-.671 1.531-1.321 2.792-1.321 1.175 0 1.952.518 2.372 1.409.82-.737 1.779-1.409 3.095-1.409 1.768 0 2.674 1.156 2.674 3.039v14.425h-2.286v-13.907c0-.859-.388-1.245-1.078-1.245-.626 0-1.294.254-2.103.859zm-44.435-9.745 5.866-5.946v3.182l-3.839 3.898 3.839 3.821v3.248l-5.866-5.869zm52.801-2.764v-3.182l5.865 5.946v2.334l-5.865 5.869v-3.237l3.838-3.832z" transform="matrix(6.13639 0 0 6.13639 100 132.499)"/></svg>